<svg version="1.1" xmlns="http://www.w3.org/2000/svg" xmlns:xlink="http://www.w3.org/1999/xlink" width="28" height="28" viewBox="0,0,28,28"><g transform="translate(-226,-166)"><g data-paper-data="{&quot;isPaintingLayer&quot;:true}" fill-rule="nonzero" stroke-linejoin="miter" stroke-miterlimit="10" stroke-dasharray="" stroke-dashoffset="0" style="mix-blend-mode: normal"><path d="M227,180c0,-7.1797 5.8203,-13 13,-13c7.1797,0 13,5.8203 13,13c0,7.1797 -5.8203,13 -13,13c-7.1797,0 -13,-5.8203 -13,-13z" fill="#ffffff" stroke="#000000" stroke-width="2" stroke-linecap="butt"/><g><g><path d="M241.31027,178.92175l6.03333,-4.36144l-0.36345,5.81525l-4.79758,-5.96064l5.08835,-0.72691" fill="none" stroke="#000000" stroke-width="2" stroke-linecap="round"/><path d="M246.04971,179.23432c-0.48846,-0.27912 -1.00337,-0.74776 -1.44456,-1.28891c-1.48588,-1.82249 -2.13566,-4.46731 1.87666,-3.46423c0.91492,0.22873 1.6293,3.5752 0.82083,4.03718z" fill="#000000" stroke="none" stroke-width="0.5" stroke-linecap="butt"/></g><g><path d="M238.68972,181.07825l-6.03333,4.36144l0.36345,-5.81525l4.79758,5.96064l-5.08835,0.72691" fill="none" stroke="#000000" stroke-width="2" stroke-linecap="round"/><path d="M233.95029,180.76568c0.48846,0.27912 1.00337,0.74777 1.44456,1.28891c1.48588,1.82249 2.13567,4.46731 -1.87666,3.46423c-0.91492,-0.22873 -1.6293,-3.5752 -0.82083,-4.03719z" fill="#000000" stroke="none" stroke-width="0.5" stroke-linecap="butt"/></g></g></g></g></svg>